<svg width="24" height="24" viewBox="0 0 24 24" fill="none" xmlns="http://www.w3.org/2000/svg">
<rect width="24" height="24" rx="4" fill="#2462EA"/>
<path d="M8.22998 16.8518V6.67H12.247C13.0159 6.67 13.6722 6.80755 14.2157 7.08264C14.7626 7.35442 15.1786 7.74055 15.4636 8.24102C15.752 8.73818 15.8961 9.32317 15.8961 9.99602C15.8961 10.6721 15.7503 11.2538 15.4586 11.741C15.167 12.2249 14.7444 12.5961 14.1909 12.8546C13.6407 13.1132 12.9745 13.2424 12.1923 13.2424H9.50271V11.5123H11.8443C12.2553 11.5123 12.5967 11.456 12.8684 11.3433C13.1402 11.2306 13.3424 11.0616 13.475 10.8362C13.6109 10.6108 13.6788 10.3307 13.6788 9.99602C13.6788 9.65793 13.6109 9.37289 13.475 9.14088C13.3424 8.90887 13.1386 8.73321 12.8635 8.61389C12.5917 8.49126 12.2486 8.42994 11.8343 8.42994H10.3826V16.8518H8.22998ZM13.7285 12.2183L16.2591 16.8518H13.8826L11.4068 12.2183H13.7285Z" fill="white"/>
</svg>
